<?xml version="1.0" encoding="UTF-8" standalone="no"?>
<svg
   xmlns:dc="http://purl.org/dc/elements/1.1/"
   xmlns:cc="http://creativecommons.org/ns#"
   xmlns:rdf="http://www.w3.org/1999/02/22-rdf-syntax-ns#"
   xmlns:svg="http://www.w3.org/2000/svg"
   xmlns="http://www.w3.org/2000/svg"
   xmlns:sodipodi="http://sodipodi.sourceforge.net/DTD/sodipodi-0.dtd"
   xmlns:inkscape="http://www.inkscape.org/namespaces/inkscape"
   width="414"
   height="896"
   viewBox="0 0 414 896"
   fill="none"
   version="1.1"
   id="svg55"
   sodipodi:docname="background_2.svg"
   inkscape:version="0.92.4 (5da689c313, 2019-01-14)">
  <metadata
     id="metadata59">
    <rdf:RDF>
      <cc:Work
         rdf:about="">
        <dc:format>image/svg+xml</dc:format>
        <dc:type
           rdf:resource="http://purl.org/dc/dcmitype/StillImage" />
        <dc:title></dc:title>
      </cc:Work>
    </rdf:RDF>
  </metadata>
  <sodipodi:namedview
     pagecolor="#ffffff"
     bordercolor="#666666"
     borderopacity="1"
     objecttolerance="10"
     gridtolerance="10"
     guidetolerance="10"
     inkscape:pageopacity="0"
     inkscape:pageshadow="2"
     inkscape:window-width="1920"
     inkscape:window-height="1001"
     id="namedview57"
     showgrid="false"
     inkscape:zoom="0.7449875"
     inkscape:cx="-301.24513"
     inkscape:cy="398.46218"
     inkscape:window-x="-9"
     inkscape:window-y="-9"
     inkscape:window-maximized="1"
     inkscape:current-layer="svg55" />
  <rect
     style="fill:#ffffff"
     y="0"
     x="0"
     id="rect2"
     height="896"
     width="414" />
  <circle
     style="fill:#edf0ff"
     id="circle16"
     r="33.5"
     cy="61.5"
     cx="305.5" />
  <path
     style="stroke:#ffb4b4;stroke-width:2"
     inkscape:connector-curvature="0"
     id="path18"
     d="m 343,85 c 0,11.6198 -9.2,21 -20.5,21 -11.3,0 -20.5,-9.3802 -20.5,-21 0,-11.6198 9.2,-21 20.5,-21 11.3,0 20.5,9.3802 20.5,21 z" />
  <path
     style="fill:#edf0ff"
     inkscape:connector-curvature="0"
     id="path20"
     d="M 94.5611,774.794 C 90.7976,764.147 70.3322,753.851 57.0639,756.39 c -15.1912,5.712 -39.4587,18.024 -24.229,49.503 8.8455,9.731 32.6514,26.909 47.881,12.693 19.0371,-17.77 17.8834,-32.368 13.8452,-43.792 z" />
  <path
     style="fill:#ffcec8"
     inkscape:connector-curvature="0"
     id="path24"
     d="M -7,79.0321 V -2 h 179.099 c 3.782,14.6267 -5.035,21.0222 -13.512,21.0222 -14.825,0 -28.823,4.1486 -28.823,22.1741 0,15.8386 -10.455,30.5432 -28.257,42.0444 C 63.4724,107.814 11.6392,91.5136 -7,79.0321 Z" />
  <path
     style="fill:#fbbebe"
     inkscape:connector-curvature="0"
     id="path26"
     d="M 285.981,846.98 C 237.829,867.731 239.5,890 251.5,897.5 H 414.736 V 746.385 c -29.085,7.896 -17.131,25.926 -29.056,59.357 -17.553,49.213 -39.509,15.299 -99.699,41.238 z" />
  <path
     style="stroke:#ffffff"
     inkscape:connector-curvature="0"
     id="path28"
     d="m 17.0269,95 c -0.6666,-18.8333 10.8,-58.6 62,-67 C 143.027,17.5 184.527,41 207.527,10" />
  <g
     id="g38"
     clip-path="url(#clip1_1_8)">
    <path
       style="fill:#ffffff"
       inkscape:connector-curvature="0"
       id="path36"
       d="m 274.5,776 c -7.455,0 -13.5,6.045 -13.5,13.5 0,7.455 6.045,13.5 13.5,13.5 7.455,0 13.5,-6.045 13.5,-13.5 0,-7.455 -6.045,-13.5 -13.5,-13.5 z m -2.778,22.535 -1.193,-1.193 7.84,-7.842 -7.841,-7.84 1.193,-1.193 9.035,9.033 z" />
  </g>
  <defs
     id="defs53">
    <linearGradient
       id="paint0_linear_1_8"
       x1="210.5"
       y1="765"
       x2="210.5"
       y2="891.829"
       gradientUnits="userSpaceOnUse">
      <stop
         stop-color="#454581"
         id="stop42" />
      <stop
         offset="1"
         stop-color="#FCFCFF"
         id="stop44" />
    </linearGradient>
    <clipPath
       id="clip0_1_8">
      <rect
         width="414"
         height="896"
         fill="white"
         id="rect47" />
    </clipPath>
    <clipPath
       id="clip1_1_8">
      <rect
         width="27"
         height="27"
         fill="white"
         transform="translate(261 776)"
         id="rect50" />
    </clipPath>
  </defs>
</svg>
