<?xml version="1.0" encoding="UTF-8" standalone="no"?>
<svg
   xmlns:dc="http://purl.org/dc/elements/1.1/"
   xmlns:cc="http://creativecommons.org/ns#"
   xmlns:rdf="http://www.w3.org/1999/02/22-rdf-syntax-ns#"
   xmlns:svg="http://www.w3.org/2000/svg"
   xmlns="http://www.w3.org/2000/svg"
   xmlns:sodipodi="http://sodipodi.sourceforge.net/DTD/sodipodi-0.dtd"
   xmlns:inkscape="http://www.inkscape.org/namespaces/inkscape"
   width="414"
   height="896"
   viewBox="0 0 414 896"
   fill="none"
   version="1.1"
   id="svg55"
   sodipodi:docname="background_3.svg"
   inkscape:version="0.92.4 (5da689c313, 2019-01-14)">
  <metadata
     id="metadata59">
    <rdf:RDF>
      <cc:Work
         rdf:about="">
        <dc:format>image/svg+xml</dc:format>
        <dc:type
           rdf:resource="http://purl.org/dc/dcmitype/StillImage" />
        <dc:title></dc:title>
      </cc:Work>
    </rdf:RDF>
  </metadata>
  <sodipodi:namedview
     pagecolor="#ffffff"
     bordercolor="#666666"
     borderopacity="1"
     objecttolerance="10"
     gridtolerance="10"
     guidetolerance="10"
     inkscape:pageopacity="0"
     inkscape:pageshadow="2"
     inkscape:window-width="1920"
     inkscape:window-height="1001"
     id="namedview57"
     showgrid="false"
     inkscape:zoom="0.7449875"
     inkscape:cx="-301.14891"
     inkscape:cy="398.57476"
     inkscape:window-x="-9"
     inkscape:window-y="-9"
     inkscape:window-maximized="1"
     inkscape:current-layer="svg55" />
  <rect
     style="fill:#ffffff"
     y="0"
     x="0"
     id="rect2"
     height="896"
     width="414" />
  <ellipse
     style="fill:#edf0ff;stroke-width:1.87146938"
     id="circle16"
     cy="766.20978"
     cx="127.64465"
     rx="62.359543"
     ry="63.030697" />
  <path
     style="stroke:#ffb4b4;stroke-width:2"
     inkscape:connector-curvature="0"
     id="path18"
     d="m 102.72751,729.30611 c 0,11.6198 -9.199998,21 -20.499998,21 -11.3,0 -20.5,-9.3802 -20.5,-21 0,-11.6198 9.2,-21 20.5,-21 11.3,0 20.499998,9.3802 20.499998,21 z" />
  <path
     style="fill:#edf0ff"
     inkscape:connector-curvature="0"
     id="path20"
     d="M 277.1145,21.76123 C 273.351,11.11423 252.8856,0.81822981 239.6173,3.3572298 c -15.1912,5.712 -39.4587,18.0240002 -24.229,49.5030002 8.8455,9.731 32.6514,26.909 47.881,12.693 19.0371,-17.77 17.8834,-32.368 13.8452,-43.792 z" />
  <path
     style="fill:#fbbebe;stroke-width:0.9885366"
     inkscape:connector-curvature="0"
     id="path26"
     d="M 322.50542,828.58115 C 288.01288,856.88945 289.20986,887.26858 297.80577,897.5 H 414.736 V 691.35052 c -20.83435,10.77164 -12.27138,35.36797 -20.81357,80.97419 -12.57368,67.13585 -28.30134,20.87073 -71.41701,56.25644 z" />
  <path
     style="stroke:#ffffff"
     inkscape:connector-curvature="0"
     id="path28"
     d="m 17.0269,95 c -0.6666,-18.8333 10.8,-58.6 62,-67 C 143.027,17.5 184.527,41 207.527,10" />
  <g
     id="g38"
     clip-path="url(#clip1_1_8)">
    <path
       style="fill:#ffffff"
       inkscape:connector-curvature="0"
       id="path36"
       d="m 274.5,776 c -7.455,0 -13.5,6.045 -13.5,13.5 0,7.455 6.045,13.5 13.5,13.5 7.455,0 13.5,-6.045 13.5,-13.5 0,-7.455 -6.045,-13.5 -13.5,-13.5 z m -2.778,22.535 -1.193,-1.193 7.84,-7.842 -7.841,-7.84 1.193,-1.193 9.035,9.033 z" />
  </g>
  <defs
     id="defs53">
    <linearGradient
       id="paint0_linear_1_8"
       x1="210.5"
       y1="765"
       x2="210.5"
       y2="891.829"
       gradientUnits="userSpaceOnUse">
      <stop
         stop-color="#454581"
         id="stop42" />
      <stop
         offset="1"
         stop-color="#FCFCFF"
         id="stop44" />
    </linearGradient>
    <clipPath
       id="clip0_1_8">
      <rect
         width="414"
         height="896"
         fill="white"
         id="rect47" />
    </clipPath>
    <clipPath
       id="clip1_1_8">
      <rect
         width="27"
         height="27"
         fill="white"
         transform="translate(261 776)"
         id="rect50" />
    </clipPath>
  </defs>
  <path
     style="fill:#fbbebe;stroke-width:1.16489875"
     inkscape:connector-curvature="0"
     id="path26-6"
     d="M 128.75505,68.555084 C 176.90707,40.396205 175.23607,10.177417 163.23606,0 H 0 V 205.06139 C 29.085012,194.34661 17.131007,169.88009 29.056012,124.5146 46.609019,57.733097 68.565027,103.75402 128.75505,68.555084 Z" />
</svg>
